<?xml version="1.0" encoding="UTF-8" standalone="no"?>
<!-- Created with Inkscape (http://www.inkscape.org/) -->

<svg
   width="66.037239mm"
   height="119.85625mm"
   viewBox="0 0 66.037239 119.85625"
   version="1.1"
   id="svg5"
   sodipodi:docname="myface_grey_thought.svg"
   inkscape:version="1.1 (ce6663b3b7, 2021-05-25)"
   xmlns:inkscape="http://www.inkscape.org/namespaces/inkscape"
   xmlns:sodipodi="http://sodipodi.sourceforge.net/DTD/sodipodi-0.dtd"
   xmlns="http://www.w3.org/2000/svg"
   xmlns:svg="http://www.w3.org/2000/svg">
  <sodipodi:namedview
     id="namedview19"
     pagecolor="#ffffff"
     bordercolor="#666666"
     borderopacity="1.0"
     inkscape:pageshadow="2"
     inkscape:pageopacity="0.0"
     inkscape:pagecheckerboard="0"
     inkscape:document-units="mm"
     showgrid="false"
     inkscape:zoom="1.6622517"
     inkscape:cx="55.647409"
     inkscape:cy="228.90637"
     inkscape:window-width="1868"
     inkscape:window-height="1016"
     inkscape:window-x="52"
     inkscape:window-y="27"
     inkscape:window-maximized="1"
     inkscape:current-layer="g846" />
  <defs
     id="defs2">
    <clipPath
       id="clip0">
      <rect
         width="249.59"
         height="453"
         fill="#ffffff"
         id="rect848"
         x="0"
         y="0" />
    </clipPath>
  </defs>
  <g
     id="layer1"
     transform="translate(-90.829987,-112.43443)">
    <g
       clip-path="url(#clip0)"
       id="g846"
       transform="matrix(0.26458333,0,0,0.26458333,90.829979,112.43443)">
      <path
         d="M 102.72539,2.1202639 C 94.947415,2.8502493 88.084624,6.7053627 85.536806,8.6265985 61.738269,8.6271387 48.443266,42.411488 46.103985,53.692441 43.764704,64.972854 35.910392,71.103607 28.790658,72.708689 9.8738707,71.061467 14.211913,84.736266 15.293115,90.936171 c -9.9455639,4.484613 -5.9620331,13.756379 -3.96057,19.167519 -1.9500313,2.63318 -1.7993557,2.54457 -4.3503065,5.29985 -2.5509507,2.75581 0.4950308,11.83417 -0.2197195,16.94007 -0.7147503,5.1059 -3.4774248,11.38792 -4.1220507,15.31283 -0.6446799,3.92492 -2.29654727,10.25826 -0.261751,16.58621 -0.863481,8.83254 0.1313887,19.21938 -0.9009743,27.29881 -1.03236309,8.07943 3.4924978,18.97087 9.078733,29.48629 0,0 3.33334,8.96707 3.250412,11.62131 -0.08287,2.65371 -0.169638,5.11184 0.85138,7.48192 1.021017,2.36953 2.106541,9.34416 2.046249,14.22963 -0.06029,4.88494 2.955976,10.57377 2.949331,13.31176 -0.0066,2.73852 -2.262674,11.31661 -1.065804,16.40576 -1.589577,4.43437 0.756835,11.0011 1.65473,16.30527 -0.754188,3.84604 2.349168,0.82766 2.370183,3.11562 0.02096,2.28796 1.331608,6.32254 0.932201,10.1178 -0.399406,3.79525 -3.55333,4.46246 -1.870452,6.73259 1.682878,2.26959 3.076073,6.12913 8.048261,16.06756 1.134416,2.671 -2.227611,7.63697 -2.847602,10.40953 0,0 0.818316,8.18046 4.443715,11.24962 3.625454,3.06916 6.256524,4.3301 5.406711,6.07889 0,0 0.899516,4.21881 5.371162,7.49434 4.471646,3.275 0.782822,4.83794 2.765538,8.81256 -0.840629,1.61264 -0.447327,4.53161 1.988119,5.87521 2.434905,1.34414 4.812543,5.02378 8.043236,10.05999 3.230693,5.03621 6.234481,6.60833 9.195049,8.09672 2.960568,1.48839 8.334972,7.42465 10.38792,12.18209 2.052949,4.75744 10.477062,2.27661 17.211274,4.51108 6.734752,2.23502 7.571599,0.87467 15.364701,0.71313 7.79256,-0.16153 12.46788,0.75743 23.1135,1.72718 10.64562,0.96921 17.409,-1.62183 23.9444,-2.97623 6.53486,-1.35495 9.94546,-4.95031 14.1016,-5.39007 4.15614,-0.43977 9.69424,-2.25068 17.54353,-8.35388 7.84929,-6.1032 15.42143,-11.02272 18.82014,-14.51003 3.39925,-3.48677 4.47975,-10.55432 5.23448,-13.31661 0.75473,-2.7623 5.91843,-8.24259 7.77257,-11.35389 1.85414,-3.1113 7.35442,-9.65858 6.13886,-13.96059 3.86278,-1.39817 5.68774,-11.67426 8.20207,-15.24801 2.51432,-3.57375 2.23015,-8.32092 3.23717,-16.07242 1.00703,-7.75097 0.20152,-8.97031 2.31281,-12.56189 2.11076,-3.59158 -0.0729,-7.59159 0.11345,-11.63049 0.18693,-4.03945 -0.88276,-8.37819 0.57591,-11.69479 1.45813,-3.31605 2.78985,-6.40952 2.69422,-9.39008 -0.0956,-2.98055 -0.54673,-11.82984 -0.49702,-16.90333 0.0497,-5.07402 3.60454,-12.0427 3.10481,-14.69317 -0.50027,-2.65046 0.83144,-12.5916 0.28525,-17.75638 -0.54673,-5.16425 0.85198,-14.26583 0.31335,-17.45871 -0.53917,-3.19233 -0.36791,-12.08917 0.59805,-13.27718 0.96543,-1.18855 1.82226,-5.16425 1.69477,-6.36738 -0.1275,-1.20314 0.81307,-14.15616 3.02161,-16.55271 2.20908,-2.39655 2.7153,-8.51974 2.20476,-14.04973 3.74609,-9.691 0.54511,-18.00706 0.23123,-26.43928 2.21664,-14.91575 -6.46193,-29.71481 -14.20425,-36.299375 0,0 0.45652,-8.855232 -4.70449,-10.987057 -1.10103,-16.195064 -17.23612,-22.37498 -21.96817,-24.197782 -1.63534,-4.158842 -0.82496,-12.946542 0.29335,-14.494358 1.11832,-1.547815 0.19503,-4.031883 0.19503,-4.031883 0,0 -3.59914,-2.54263 -11.79202,-4.566405 C 193.8963,32.909308 188.36793,28.465755 178.78227,26.504432 180.25716,15.420617 168.8487,7.1426408 167.93676,6.8299443 c -0.91194,-0.3127506 -3.349,0.9490025 -7.69207,0.9771495 -4.34253,0.028201 -9.7299,1.9503018 -15.90063,5.5607902 C 135.12686,5.9617631 129.30675,8.8446433 123.11927,10.959775 117.16464,3.2641885 109.58872,1.4761243 102.72539,2.1202639 Z M 89.052211,73.496913 c 10.249076,-0.814156 19.079999,0.481362 23.508419,1.398706 -6.00055,2.554841 -11.51758,5.449498 -11.51758,5.449498 -8.143181,-4.121024 -9.491644,-4.250684 -11.990839,-6.848204 z m -22.129706,4.920053 c 5.773107,3.69909 10.353344,5.62616 14.628339,6.602391 0.642897,3.551601 -2.726099,4.937342 -4.572132,8.6991 -6.783915,-2.716915 -7.390075,-7.788779 -10.056207,-15.301491 z m -4.936261,3.555924 c 0.567802,7.409523 5.305251,11.524065 12.53109,18.54083 -0.776339,1.41383 -5.370622,4.47813 -13.486792,5.09887 1.780663,0.75149 4.09023,1.68018 5.80012,2.13831 1.70989,0.45759 12.022716,-1.23825 16.541904,-6.58888 13.153458,1.58401 25.023824,-2.5905 36.254534,-8.904398 17.82716,1.762294 25.8477,-4.598605 32.71212,-14.388469 7.83091,0.9946 13.96383,0.162615 20.14212,-0.203674 6.50029,4.626158 18.13457,11.760695 30.83476,11.328495 0,0 0.2685,1.424638 4.82227,4.19936 4.5543,2.774723 22.08162,36.786136 24.73641,45.262116 2.65424,8.47652 3.50514,20.11728 5.70395,28.61702 -1.32847,7.51596 0.37872,27.42254 -0.17936,29.39715 -0.55754,1.97461 -0.43706,19.57811 0.23123,28.44901 0.66828,8.87036 -0.81686,18.81798 -1.69531,29.97197 0,0 -2.25986,10.79095 -3.69368,14.09727 -1.43383,3.30687 -1.74717,14.75584 -2.1637,19.0249 -0.41708,4.26905 -1.80498,8.57106 -2.18099,11.62239 -0.37602,3.05133 -0.99352,4.80606 -2.69423,6.41654 -1.70124,1.61103 -5.1583,11.75799 -7.52946,16.6116 -2.37115,4.8536 -8.94869,4.91195 -16.04487,5.66235 0,0 -1.76878,-2.28903 -2.34685,-4.18963 -0.57806,-1.9006 -1.11615,-4.8428 -0.66396,-9.3474 0.45219,-4.5046 -2.67154,-13.56621 -5.8736,-17.12862 -3.2026,-3.5624 -9.89035,-9.37711 -14.1929,-11.88927 -4.30309,-2.51162 -9.29229,-6.9757 -17.42953,-13.62132 -5.8817,4.59969 -16.19669,5.15183 -18.59378,4.72017 -2.39654,-0.4322 -8.58348,-3.91952 -12.74449,-4.95517 -2.255,1.3517 -3.44571,4.1302 -5.51216,6.05511 -2.06646,1.92491 -10.02055,6.59807 -15.65374,11.61915 -4.32415,1.13831 -12.462475,2.82875 -16.739091,10.47652 -4.551063,1.76014 -5.025402,13.57216 -8.356042,14.7834 0,0 -13.119962,3.73744 -16.595928,4.32199 0,0 -8.685054,-0.74554 -11.817421,-0.19395 0,0 -2.642361,-3.06591 -2.237714,-7.21773 0,0 -1.966509,-7.81741 -3.774184,-8.12914 0,0 -3.095631,-2.53485 -7.627785,-5.67586 0,0 1.520262,-8.17182 0.08698,-8.32471 0,0 -2.665051,0.84009 -6.47111,-1.03998 -1.19352,-0.0902 -2.715403,-6.50839 -0.914211,-9.26204 1.801301,-2.75419 -0.713345,-4.64128 -2.216482,-5.52567 -1.50319,-0.88385 -2.128854,-7.79364 -5.65636,-15.39009 -3.52756,-7.59699 -3.646739,-16.71047 -3.403734,-25.78882 0.24295,-9.07836 -0.279202,-21.76936 0.856889,-39.3237 4.849497,-18.27178 1.079257,-43.21457 2.601843,-46.78562 1.522585,-3.57051 7.885592,-18.27556 12.521366,-33.53815 9.097804,-9.82823 16.459246,-24.149704 22.111878,-31.00223 z m 50.367476,-1.479744 c 2.43869,-0.23663 4.14263,-0.290655 4.14263,-0.290655 -1.95678,2.392226 -3.55538,5.002712 -3.55538,5.002712 -5.72341,-2.211242 -5.98867,0.228526 -9.13724,-3.320374 2.93842,-0.73474 6.11184,-1.155054 8.54999,-1.391683 z m 17.15509,-1.377097 c 0,0 6.61211,0.615345 13.66993,-0.280929 0,0 -1.26634,5.246364 -7.2415,8.641833 -5.97516,3.394929 -12.82931,1.162617 -12.24638,1.090224 0.58239,-0.07239 2.48515,-4.721782 5.81795,-9.451128 z m -41.377185,5.705577 c 2.268509,-0.02755 9.895753,0.531065 12.143735,0.62777 2.24852,0.09671 3.45651,0.960564 6.40574,2.51 -5.25123,4.115081 -12.021638,7.997856 -21.064337,8.72179 2.070777,-3.327938 3.142092,-6.985428 2.514862,-11.85956 z M 153.48725,303.2424 c 3.95786,0.0308 5.74717,-0.3463 8.31714,2.05349 4.91033,0.38358 7.78176,0.11724 11.0897,0.0475 8.88063,7.7769 12.362,7.51217 12.88982,10.50462 1.16262,4.88493 3.4938,9.71531 -2.52783,11.61428 1.10427,3.85144 2.63372,7.832 3.86171,9.5889 1.22799,1.75743 3.77148,9.55485 1.95841,12.60888 -1.81254,3.05403 -4.22908,6.38305 -6.09835,7.87846 -5.83307,-2.24473 -7.58726,-5.97084 -9.27662,-9.0427 -1.68936,-3.07132 -0.48137,-7.29769 -4.93951,-8.94059 -4.45814,-1.6429 -9.13832,-0.72555 -19.37011,-0.92382 -10.23178,-0.19774 -20.51544,-0.43058 -24.59864,-7.61644 -5.7569,2.29606 -7.14589,3.32793 -11.18317,4.78661 -4.03783,1.45921 -3.10428,7.54945 -2.81092,10.80391 0.2939,3.25446 0.66829,9.69694 -7.37603,9.19181 -8.044856,-0.50514 -12.067555,-3.05781 -15.703435,-3.34253 -0.750947,-10.33605 -3.717458,-9.68289 2.802275,-14.65697 6.519192,-4.97462 11.26042,-7.22584 13.92331,-8.80661 2.66235,-1.58131 1.24798,-2.16478 -0.29605,-5.65857 -1.54404,-3.4938 5.41546,-7.55864 5.41546,-7.55864 5.65857,-3.48839 13.01515,-5.08645 18.12862,-7.92492 5.11346,-2.83901 8.91087,-0.92004 8.91087,-0.92004 l 3.5435,-1.49271 c 4.23286,0.75473 5.75312,1.59373 5.75312,1.59373 0,0 6.33497,-2.31551 7.58673,-3.78769 z m 15.35011,-117.01483 c 1.30794,-1.15506 6.73313,-4.58726 2.06159,-4.90007 5.08483,-1.54457 6.59321,-6.39764 11.8493,-4.859 5.42465,-0.48245 10.92601,0.61426 16.0049,-1.51811 4.37494,1.50676 11.24908,5.84983 14.86443,3.43599 -1.98812,-1.9892 -4.7515,-4.43059 -0.08,-2.69476 4.44896,2.54025 10.54837,1.69152 13.96221,5.75312 2.72826,4.49811 5.01028,10.12103 3.62724,15.43331 -2.75203,-0.8093 -2.76338,-8.85686 -7.10699,-10.51002 -1.4295,-0.46407 0.32199,-3.6872 -3.18153,-2.14695 -1.93139,1.54133 1.09347,3.53863 -2.37169,1.12318 -2.22151,-2.416 -10.72126,-2.34307 -3.91195,-0.51 2.70341,2.52675 0.29498,2.12318 -1.71367,0.59752 -4.98651,1.0443 -0.76716,6.15668 3.44679,6.83794 3.64399,3.9449 -5.24744,-2.43707 -7.10158,-2.10968 -7.11509,-1.94057 -14.69749,-2.88871 -21.65429,0.0378 -6.1313,1.15559 -9.06269,-7.65156 -15.2291,-3.68558 -1.11616,0.27012 -2.48029,0.52512 -3.4657,-0.28471 z m 24.9725,-8.68938 c 0.97407,-0.56672 -1.02647,-0.37926 0,0 z m 14.17994,7.13292 c -0.36953,-2.17505 -2.57051,0.18476 0,0 z m 0.1464,3.67856 c 1.17127,-0.38142 -1.69152,-0.82172 0,0 z m 0.2053,-6.94221 c 2.78445,2.9503 7.27662,-0.93463 1.57915,-1.0832 -0.97623,-0.67694 -3.09455,-0.35279 -1.57915,1.0832 z m 6.37603,-4.10806 c 0.81415,-0.76121 -1.19828,-0.08 0,0 z m 3.73258,5.52351 c 0.97461,-0.56672 -1.02647,-0.37925 0,0 z m -17.12591,7.0535 c -5.69964,1.43112 -13.14374,1.58996 -16.41171,7.25988 3.80552,-0.17991 2.79147,8.47598 8.36415,9.33606 6.05025,3.03782 13.3393,-1.92167 13.02001,-8.61159 0.91789,-6.30471 8.68884,1.36359 10.59376,4.30957 1.84981,6.63319 10.41007,-0.17288 4.42843,-3.91195 -4.60347,-0.58401 -8.21396,-5.25014 -12.92926,-6.79526 -2.01405,-1.59211 -4.69801,-1.19827 -7.06538,-1.58671 z m -5.14966,8.17776 c 4.16586,-0.12318 5.56565,3.99947 0.36683,3.34036 -2.70125,-0.12695 -3.15074,-2.84171 -0.36683,-3.34036 z m 2.63317,3.53107 c 4.83578,-0.24689 -3.51594,1.71044 0,0 z m -10.31822,-5.41762 c 1.65424,-0.41545 -0.78931,-0.9395 0,0 z m 0.32685,-20.69697 c 0.9611,0.35657 -0.74717,0.30687 0,0 z m 30.05408,19.25342 c 1.35873,-0.0281 -0.41815,1.32199 0,0 z M 45.262816,180.37774 c 0.789845,0.42842 -0.788765,0.54133 0,0 z m 1.113454,-5.17181 c 1.785525,-4.53485 3.075642,-9.28095 5.718543,-13.41548 2.267968,-3.58293 6.690451,-4.90276 8.566198,-8.53918 3.149115,-3.2334 7.229621,-4.35333 11.27393,-5.98381 2.441388,-0.9557 5.505684,-3.83415 7.318762,-1.12696 1.621829,-1.06915 2.351707,2.7288 4.367918,1.68936 -2.073478,4.38899 4.904927,2.12318 6.864412,4.41708 5.126969,2.48191 10.144807,5.51163 15.813107,6.5273 4.13777,0.97893 7.58186,3.66991 10.98328,5.95841 -1.60455,-0.1329 -4.36522,0.2026 -1.67586,1.71151 2.21827,1.0254 3.39007,3.14858 2.7569,4.77203 2.00594,0.23285 2.14154,0.88817 0.94975,2.36305 0.41546,0.99244 4.28418,1.15559 1.69747,2.25392 4.90979,2.04431 6.72178,7.57376 9.25285,11.82823 1.40681,1.32361 1.8871,7.05998 0.20962,3.03836 -1.82226,-3.49055 -4.66938,-6.34307 -7.84442,-8.56458 -2.80984,-3.57699 -6.73746,-6.19396 -11.02866,-7.65101 -4.09563,-2.79147 -9.11563,-3.79742 -13.17885,-6.67749 -3.697468,-2.07618 -7.591588,-3.7704 -11.49111,-5.4241 -4.613732,-0.67369 -8.833082,-3.24366 -13.626717,-2.90114 -4.11292,-0.38142 -7.701799,1.75797 -11.528927,2.70827 -4.200441,1.65154 -7.511091,5.0751 -9.870902,8.82281 -1.404108,1.63264 -5.164246,4.88872 -5.813086,4.68613 z m 6.7515,-7.30363 c 2.175045,-0.87629 -1.636956,0.18044 0,0 z m 27.994116,-17.48302 c 0.884929,-0.57861 -0.975691,-0.3409 0,0 z m 19.707764,8.05296 c 1.28958,-1.08428 -1.730957,-0.20097 0,0 z m 2.76122,-0.11291 c 0.0346,-0.62183 -1.25662,0.90654 0,0 z m 10.96653,16.25611 c -0.15884,-1.37494 -1.21665,0.93355 0,0 z m -0.32361,-4.57375 c 2.8228,-0.11778 -1.24798,-1.8482 0,0 z m -66.758112,8.97408 c 3.142633,-1.93409 -2.172884,2.53269 0,0 z m -0.356024,-2.01837 c 1.275529,-0.46299 -0.66991,0.93031 0,0 z m 15.584041,17.26746 c 1.392764,-0.81146 -0.806593,-3.67694 1.490009,-3.50298 -1.606703,-1.50784 2.773641,-1.53863 1.830906,-3.07888 3.930856,-2.02378 7.257714,-5.31444 11.673714,-6.31498 3.172886,-1.65479 8.477598,-0.11129 10.77582,0.27931 -1.607243,0.77148 -5.656414,2.62453 -1.341981,2.81146 4.811464,1.17072 7.297152,8.19613 3.557544,11.76826 -0.567802,-3.01406 -3.266889,-5.44572 -6.403038,-4.57322 -2.675317,1.812 0.398704,4.23502 2.452733,3.58564 3.406274,3.604 -2.779584,6.97894 -6.108063,5.64507 -4.917892,-0.62561 -8.642913,-6.73367 -5.914112,-11.18317 2.499735,-3.3274 -0.04592,-6.08861 -2.856841,-2.74069 -2.991362,2.28094 -5.75744,4.96976 -7.622382,8.26852 -0.07888,3.3274 -2.105893,0.66829 -1.534309,-0.96434 z m 21.275031,3.55754 c 0.703946,-0.82226 -0.613723,-0.26148 0,0 z m -17.991393,1.35603 c 3.834151,1.41437 -0.709888,1.44733 0,0 z m 1.625611,-52.07304 c 1.997843,-1.49379 -0.02917,0.9249 -0.515398,0.63479 z m 15.506785,25.81637 c 3.768782,-3.5797 8.875222,0.26958 12.483009,2.20692 2.368994,2.32523 -3.444632,-0.45489 -4.553765,-0.4214 -1.92761,-1.12804 -7.956256,-0.74932 -7.929244,-1.78552 z m 7.48678,9.7796 c 1.911403,-1.7985 0.784983,2.27715 0,0 z m 2.143711,0.12858 c 2.322533,-2.00271 1.552677,4.29768 -0.113993,0.90545 l 0.01243,-0.45002 z m 4.032963,1.97191 c 2.365753,-0.65695 0.213399,2.87575 0,0 z m 35.189697,9.38845 c 1.12642,-0.36628 -0.37601,1.11994 0,0 z"
         fill="#000000"
         fill-opacity="0.2"
         id="path1686"
         style="display:inline;opacity:1;fill:#cccccc;fill-opacity:1;stroke-width:0.54025" />
    </g>
  </g>
</svg>
