<?xml version="1.0" encoding="UTF-8" standalone="no"?>
<!-- Created with Inkscape (http://www.inkscape.org/) -->

<svg
   width="66.037239mm"
   height="119.85625mm"
   viewBox="0 0 66.037239 119.85625"
   version="1.1"
   id="svg5"
   sodipodi:docname="myface_grey.svg"
   inkscape:version="1.1 (ce6663b3b7, 2021-05-25)"
   xmlns:inkscape="http://www.inkscape.org/namespaces/inkscape"
   xmlns:sodipodi="http://sodipodi.sourceforge.net/DTD/sodipodi-0.dtd"
   xmlns="http://www.w3.org/2000/svg"
   xmlns:svg="http://www.w3.org/2000/svg">
  <sodipodi:namedview
     id="namedview19"
     pagecolor="#ffffff"
     bordercolor="#666666"
     borderopacity="1.0"
     inkscape:pageshadow="2"
     inkscape:pageopacity="0.0"
     inkscape:pagecheckerboard="0"
     inkscape:document-units="mm"
     showgrid="false"
     inkscape:zoom="1.6622517"
     inkscape:cx="124.83067"
     inkscape:cy="226.49999"
     inkscape:window-width="1868"
     inkscape:window-height="1016"
     inkscape:window-x="52"
     inkscape:window-y="27"
     inkscape:window-maximized="1"
     inkscape:current-layer="g846" />
  <defs
     id="defs2">
    <clipPath
       id="clip0">
      <rect
         width="249.59"
         height="453"
         fill="#ffffff"
         id="rect848"
         x="0"
         y="0" />
    </clipPath>
  </defs>
  <g
     id="layer1"
     transform="translate(-90.829987,-112.43443)">
    <g
       clip-path="url(#clip0)"
       id="g846"
       transform="matrix(0.26458333,0,0,0.26458333,90.829979,112.43443)">
      <path
         d="m 135.932,0 c -5.878,0.389656 -10.124,6.57429 -12.343,6.17645 -2.22,-0.39785 -0.971,-2.4203 -6.878,-4.65269 -1.827,-0.690521 -3.501,-0.40545 -3.501,-0.40545 l -0.465,2.77333 c 0.784,4.48153 0.328,6.86296 -1.146,10.22926 -3.243,0.6785 -5.815,-0.9438 -5.815,-0.9438 C 105.594,8.20612 104.617,1.65835 104.617,1.65835 99.0724,5.6895 98.2788,15.0282 98.2788,15.0282 92.0757,8.22718 82.4657,12.3579 82.4657,12.3579 67.0442,9.78105 55.2298,16.5263 51.3559,20.5898 40.2116,28.2067 40.7811,29.2673 39.112,36.4455 35.2068,38.6874 22.3806,49.8568 18.0305,53.4378 c -4.35,3.581 1.1427,11.0535 1.1427,11.0535 -4.2621,7.411 -10.62126,19.6235 -10.62126,22.3395 0,2.7161 -2.80572,7.3636 -2.07941,11.2861 0.72632,3.9221 -1.49355,9.9221 -1.04635,15.2691 0.44722,5.347 2.95208,13.73 1.97478,17.92 -0.97731,4.19 -3.52935,19.619 -3.52935,19.619 -4.094708,5.508 -4.785493,20.534 -2.80521,31.409 -2.41305,6.812 0.24913,15.121 0.24913,15.121 0,0 3.29918,11.556 3.81668,14.626 0.5175,3.07 5.82749,20.463 4.61058,23.018 -1.21688,2.554 -1.41174,7.663 -1.41174,10.359 0,2.695 1.21575,9.249 1.21575,11.023 0,1.775 -0.77075,8.354 0.8537,10.622 1.6244,2.267 4.177,8.583 2.6624,10.314 -1.5147,1.731 0.2458,10.417 0.2458,10.417 0,0 -1.051,-6.014 -0.6511,-0.323 0.3999,5.692 1.0403,8.436 2.3883,11.735 1.3481,3.299 1.347,4.874 1.347,7.474 0,2.601 2.3427,4.11 1.1875,6.906 -1.1551,2.796 0.0158,6.083 -0.3604,8.578 -0.3762,2.494 0.1115,8.25 0.4302,12.825 0.3187,4.574 1.1304,6.66 2.297,11.331 1.1666,4.67 2.1849,5.646 2.9646,9.729 0.7797,4.083 0.7662,7.785 2.973,9.124 2.2068,1.339 4.9321,4.52 4.29,6.181 -0.6421,1.662 -2.72,1.069 -2.003,4.022 0.7171,2.952 3.4179,2.974 3.8964,5.619 0.4786,2.646 0.6381,-1.171 0.2309,4.756 -0.4072,5.927 1.5997,1.026 3.619,3.425 2.0193,2.399 -0.8557,3.598 1.9416,7.452 2.7973,3.854 -0.3431,7.686 2.8783,9.849 3.2213,2.163 7.8579,5.147 10.5016,5.994 2.6438,0.847 5.4037,-1.485 7.7032,0.492 2.2994,1.977 1.5056,3.057 5.0905,7.51 3.5849,4.454 -1.1328,4.778 5.4593,7.988 6.5921,3.21 4.9726,2.874 10.1147,4.709 5.1421,1.835 4.7899,7.102 10.4486,9.091 5.6586,1.99 3.5285,1.356 7.0786,1.356 3.5505,0 7.4555,1.385 14.7715,2.687 7.317,1.302 5.701,5.041 13.379,6.276 7.677,1.236 7.538,-0.873 14.934,-1.638 7.396,-0.765 9.918,-1.797 13.249,-3.712 3.331,-1.915 5.436,-2.449 12.05,-5.133 6.613,-2.684 8.167,-2.524 11.274,-6.492 3.106,-3.968 2.734,-5.444 7.14,-7.84 4.405,-2.396 6.635,-1.663 8.206,-6.821 1.571,-5.158 5.223,-9.228 6.423,-12.298 1.199,-3.07 1.907,-7.777 3.054,-10.313 1.147,-2.535 6.465,-10.296 8.093,-12.692 1.628,-2.395 9.509,-11.99 9.509,-17.349 2.52,-5.133 5.693,-7.828 6.784,-11.185 1.092,-3.357 0.866,-8.129 0.866,-10.131 0,-3.488 -0.152,-5.189 0.832,-12.016 3.954,-9.033 5.439,-11.998 5.439,-15.779 0,-3.781 0.847,-10.881 0.847,-14.784 0,-3.903 -0.201,-9.829 0.2,-15.866 0.399,-6.037 -0.197,-6.614 0.016,-10.589 0.212,-3.976 1.339,-9.745 3.006,-17.865 1.668,-8.12 3.229,-9.817 3.716,-15.199 0.486,-5.383 0.633,-7.915 1.926,-14.224 1.293,-6.31 0.781,-11.962 1.573,-16.534 0.792,-4.572 1.314,-6.341 -0.586,-11.392 1.671,-4.164 2.313,-17.29 2.591,-19.165 0.278,-1.874 0.085,-9.17 -0.239,-14.024 -0.325,-4.854 2.055,-19.881 2.959,-22.001 0.905,-2.119 0.619,-14.361 -2.73,-19.332 -2.325,-4.971 -7.668,-11.004 -9.336,-14.248 -1.668,-3.245 -2.747,-8.246 -3.835,-11.599 -1.087,-3.3529 -4.863,-8.0237 -4.863,-10.1644 0,-2.1408 -0.569,-4.5009 0,-6.331 0.569,-1.8301 2.09,-5.1944 2.09,-5.1944 -2.273,-2.3446 -5.172,-0.644 -7.724,-3.6357 -2.551,-2.9918 -0.632,-6.291 1.912,-5.4487 -2.029,-5.2605 -6.037,-8.9975 -10.734,-8.5975 -1.624,-3.7853 -8.464,-12.1831 -15.267,-5.6596 l -6.803,6.522 c 0,0 2.515,-5.6625 4.108,-7.7832 1.592,-2.1208 8.055,-1.728 7.65,-4.6345 -0.406,-2.9065 -3.172,-7.2519 -7.375,-7.652 -4.203,-0.4 -6.954,-3.3089 -12.783,-4.0412 -5.829,-0.7322 -7.756,0.0154 -12.397,-2.4327 -4.641,-2.448 -5.047,-3.6774 -7.66,-9.0877 -2.614,-5.4102 -5.812,-12.0771 -9.522,-12.9527 0.645,5.6337 0.977,17.3414 -2.69,20.4486 -6.294,-6.0737 -12.877,-14.4675 -12.15,-17.2981 0.727,-2.8305 4.205,-8.869 0.548,-12.56224 -2.051,6.68824 -2.051,8.07904 -2.051,8.07904 l -2.441,5.9605 c 0,0 -5.171,-0.1419 -3.183,-5.6913 C 133.9,8.6928 134.401,5.91364 135.932,0 Z m -20.91,10.0814 c 0.938,2.1135 2.048,4.1974 2.048,4.1974 h -0.002 c 0.549,4.2634 0.577,6.4985 -0.354,9.764 -0.931,3.2655 -1.319,8.6361 0.263,10.8241 -4.617,-6.278 -4.413,-9.587 -4.413,-11.296 0,-1.7091 -0.022,-5.9793 0.561,-8.1406 0.583,-2.1612 1.897,-5.3489 1.897,-5.3489 z m 13.279,67.2795 c -6.117,9.3787 -16.364,15.2355 -23.09,16.9873 C 98.4857,96.1001 94.9284,92.3188 87.0746,86.8341 101.403,86.7686 118.2,80.755 128.301,77.3609 Z m 34.225,2.1918 c 0.926,0.0208 1.93,0.1173 3.053,0.3174 4.493,0.8001 7.343,1.0563 10.419,2.3396 3.076,1.2833 16.487,4.9294 26.864,14.2888 12.515,14.3875 24.359,26.0425 27.32,32.8995 2.96,6.857 1.191,16.913 3.026,22.584 1.835,5.67 3.651,10.697 3.651,19.177 0,8.48 -1.108,12.915 -0.708,18.279 0.4,5.363 -1.004,15.836 -0.543,22.065 0.461,6.229 -0.505,11.862 -0.351,22.135 0.155,10.273 -0.809,15.782 -2.27,25.229 -1.461,9.448 -1.555,18.979 -2.355,26.471 -0.8,7.491 -0.282,14.542 -2.297,19.912 -2.015,5.37 -3.776,8.754 -6.738,13.119 -2.963,4.365 -1.817,8.852 -8.662,11.661 -6.844,2.809 -11.523,3.605 -16.741,4.379 -2.263,-11.475 -1.924,-13.825 -6.365,-18.508 -4.441,-4.683 -5.947,-6.885 -8.297,-10.844 -2.351,-3.959 -5.063,-4.706 -5.063,-4.706 l -3.757,1.517 c -6.974,-2.493 -12.026,-7.649 -13.941,-7.649 -1.915,0 -5.061,0.408 -5.061,0.408 -1.768,-2.782 -7.768,-7.119 -7.768,-7.119 -4.742,1.152 -8.345,5.341 -8.345,5.341 0,0 3.537,2.736 -0.773,3.301 -4.309,0.565 -5.75,-0.488 -8.105,-0.488 -2.355,0 -4.833,-1.149 -6.869,-3.368 -2.036,-2.22 -4.169,-2.44 -7.786,-4.469 -5.398,1.233 -9.964,5.343 -12.136,6.659 -2.1724,1.316 -2.854,0.4 -6.2949,2.08 -3.441,1.681 -5.2359,0.03 -8.2795,0.03 -3.0436,0 -6.1582,0.904 -9.844,4.658 -3.6857,3.753 -9.626,7.105 -11.1776,10.403 -1.5516,3.299 -2.9746,8.067 -2.9746,9.866 0,1.799 -0.4716,-1.427 -7.1501,-0.627 -6.6785,0.8 -14.191,-1.681 -19.2445,-4.691 -5.0536,-3.009 -10.6376,-3.877 -11.1046,-6.462 -1.3745,-11.15 -3.3931,-18.272 -3.3931,-18.272 0,0 -1.7571,-4.73 -1.8918,-12.382 -0.1347,-7.652 -2.8545,-16.38 -2.6823,-22.137 0.1722,-5.757 -2.586,-19.21 -2.586,-21.341 0,-2.131 0.7557,-6.625 0.4003,-11.886 -0.3553,-5.262 0,-15.134 0,-18.857 0,-3.722 -1.3818,-19.674 -1.3818,-19.674 0,0 -0.5684,-2.637 -0.9534,-6.761 -0.3849,-4.124 2.7322,-4.356 2.7322,-4.356 0,0 4.5587,-1.454 4.956,-5.448 0.3973,-3.995 0.5614,-8.883 0.5614,-13.794 0,-4.911 -0.666,-5.348 -0.666,-13.115 0,-7.768 -3.1008,-8.227 0.9616,-14.676 4.0624,-6.45 6.3839,-8.961 8.9305,-12.395 2.5466,-3.433 2.9015,-4.686 2.9015,-4.686 5.4841,6.36 9.6729,12.451 6.2267,20.768 7.381,-7.351 12.4178,-10.739 3.7768,-29.053 2.358,-7.2808 12.4764,-13.5357 12.4764,-13.5357 12.8443,10.2698 26.1175,18.1537 33.1311,17.7537 7.0136,-0.4 13.7747,-3.423 17.1747,-6.2965 6.868,-0.1688 18.516,-3.973 31.846,-16.5237 11.193,-1.5495 13.485,-1.5578 16.805,-2.3579 2.49,-0.6001 4.565,-1.2256 7.342,-1.1632 z m -97.9462,8.5742 c 7.1439,0.5141 12.1056,0.8763 15.2152,0.0051 5.115,4.4932 11.9133,8.3489 16.1403,9.2971 C 85.0695,97.6448 77.7565,97.8566 64.5798,88.127 Z M 132.659,318.118 c 1.889,-0.027 2.864,1.223 3.959,1.602 1.669,0.576 4.764,1.199 4.764,4.288 0,3.09 7.197,-4.003 9.686,-5.297 2.488,-1.294 1.576,10e-4 2.981,3.426 1.405,3.426 2.719,0.949 2.719,0.949 0,0 3.655,-4.304 5.282,-2.956 1.626,1.348 1.753,2.376 4.542,4.801 2.427,0 1.929,-1.403 3.624,0.006 1.695,1.409 3.603,3.495 3.603,7.654 0,4.16 0.665,5.061 2.326,11.123 1.661,6.062 2.257,6.927 3.146,12.353 0.889,5.426 0.543,4.945 0.543,4.945 0,0 -3.451,0.453 -7.592,7.32 -2.432,-1.256 -4.295,-3.471 -4.695,-6.241 -0.4,-2.77 -1.724,-9.187 -5.296,-11.336 -3.573,-2.15 -8.964,-5.442 -8.964,-5.442 l -5.949,1.419 c 0,0 -6.679,0.866 -10.874,0.073 -4.195,-0.793 -6.824,-0.245 -8.922,-1.924 -2.098,-1.679 -10.522,2.826 -10.522,2.826 l -5.705,-2.261 c 0,0 -6.049,-2.559 -14.6688,-4.359 -3.7602,2.754 -7.0946,5.453 -8.4887,8.87 -1.3942,3.418 0.539,7.497 0.5065,16.86 -1.9834,-0.401 -4.7496,1.877 -7.4656,-1.114 -2.7159,-2.99 -6.1372,-3.544 -6.4624,-7.795 -0.3253,-4.251 -0.4059,-10.443 0.0017,-14.936 0.4074,-4.494 2.5107,-5.572 4.2037,-10.13 l 6.5571,-1.469 c 0,0 1.4085,-2.554 7.5154,-4.483 6.1069,-1.93 3.0285,-1.513 7.7251,-0.313 4.696,1.201 4.178,10e-4 5.627,-2.507 1.448,-2.509 6.703,-0.656 6.703,-0.656 0,0 5.903,-1.676 7.751,-0.15 1.848,1.526 3.197,-0.766 7.969,-3.744 1.641,-1.023 2.88,-1.388 3.87,-1.402 z"
         fill="#000000"
         fill-opacity="0.2"
         id="path824"
         style="fill:#cccccc;fill-opacity:1" />
      <path
         d="m 66.906,223.51 c -0.4545,-0.445 -2.1363,-0.931 -3.7372,-1.082 -3.4716,-0.326 -4.6917,-2.4 -1.4119,-2.4 2.57,0 2.6069,-0.142 0.8994,-3.445 -1.4686,-2.842 -1.7341,-2.92 -4.9042,-1.447 -2.7933,1.298 -2.9558,2.979 -0.3888,4.023 1.3914,0.566 0.5653,0.699 -3.028,0.488 -2.7177,-0.159 -5.1915,-0.54 -5.4973,-0.846 -1.1174,-1.118 1.2973,-3.362 6.5865,-6.121 14.4974,-7.562 25.8587,-6.994 35.7409,1.785 2.0476,1.819 5.3588,3.354 8.9286,4.14 0.936,0.206 0.075,0.419 -1.9131,0.473 -1.9878,0.055 -3.6141,-0.258 -3.6141,-0.694 0,-0.437 -0.8012,-1.048 -1.7805,-1.359 -0.9793,-0.311 -3.4265,-1.677 -5.4381,-3.035 -2.0117,-1.359 -4.0284,-2.47 -4.4816,-2.47 -0.8637,0 -2.2215,7.625 -1.4884,8.358 0.2325,0.233 2.4647,-0.034 4.9606,-0.593 2.4959,-0.559 5.2588,-0.739 6.1398,-0.401 1.9598,0.752 -10.3071,3.029 -12.5806,2.334 -0.8184,-0.249 -1.4881,-0.094 -1.4881,0.346 0,0.44 -1.8177,0.994 -4.0393,1.23 -2.2215,0.237 -4.624,0.677 -5.3387,0.978 -0.7147,0.301 -1.6713,0.183 -2.1259,-0.262 z"
         fill="#000000"
         fill-opacity="0.2"
         id="path826"
         style="fill:#cccccc;fill-opacity:0.99950796" />
      <path
         d="m 73.8323,212.749 c -0.4773,-1.245 -3.0757,-0.776 -3.0757,0.554 0,0.412 0.6696,1.538 1.4881,2.502 l 1.4881,1.752 0.2799,-1.804 c 0.1539,-0.992 0.0727,-2.344 -0.1804,-3.004 z"
         fill="#ffffff"
         id="path828" />
      <path
         d="m 185.227,223.669 c -0.337,-0.337 -1.88,-0.504 -3.429,-0.37 -2.528,0.218 -3.001,-0.113 -4.631,-3.242 -0.998,-1.917 -1.815,-4.096 -1.815,-4.843 0,-1.115 -0.649,-1.263 -3.614,-0.826 -3.423,0.505 -3.524,0.461 -1.914,-0.833 5.525,-4.437 16.54,-5.595 25.859,-2.718 8.282,2.556 12.477,4.755 13.546,7.101 0.523,1.15 0.786,2.09 0.584,2.09 -0.862,0 -5.344,-2.258 -8.006,-4.033 -4.086,-2.726 -5.731,-2.48 -6.888,1.027 -1.56,4.731 -7.521,8.819 -9.692,6.647 z"
         fill="#000000"
         fill-opacity="0.2"
         id="path830"
         style="fill:#cccccc;fill-opacity:0.99950796" />
      <path
         d="m 165.147,220.894 c -1.637,-0.352 -3.933,-1.085 -5.102,-1.628 l -2.126,-0.988 2.126,0.494 c 1.169,0.271 3.561,0.716 5.315,0.987 1.754,0.271 3.189,0.825 3.189,1.232 0,0.406 -0.096,0.694 -0.213,0.641 -0.117,-0.054 -1.552,-0.386 -3.189,-0.738 z"
         fill="#000000"
         fill-opacity="0.2"
         id="path832"
         style="fill:#cccccc;fill-opacity:0.99950796" />
      <path
         d="m 187.008,215.512 c 0.244,-1.817 -0.04,-2.29 -1.373,-2.29 -0.924,0 -1.916,0.382 -2.205,0.85 -0.289,0.468 -0.12,0.851 0.375,0.851 0.495,0 0.901,0.798 0.901,1.773 0,2.543 1.937,1.548 2.302,-1.184 z"
         fill="#ffffff"
         id="path834" />
      <path
         d="m 56.3003,203.886 c 0,-0.363 1.0524,-0.891 2.3386,-1.172 1.2861,-0.282 3.2951,-0.769 4.4644,-1.083 3.7341,-1.004 1.2956,0.478 -2.8317,1.721 -2.1842,0.657 -3.9713,0.898 -3.9713,0.534 z"
         fill="#000000"
         fill-opacity="0.2"
         id="path836"
         style="fill:#cccccc;fill-opacity:0.99950796" />
      <path
         d="m 65.9378,201.594 c 0.3118,-0.312 0.8221,-0.312 1.1339,0 0.3118,0.312 0.0567,0.568 -0.5669,0.568 -0.6237,0 -0.8788,-0.256 -0.567,-0.568 z"
         fill="#000000"
         fill-opacity="0.2"
         id="path838"
         style="fill:#cccccc;fill-opacity:0.99950796" />
      <path
         d="m 45.033,194.983 c -1.8252,-1.339 -1.9073,-2.18 -0.2126,-2.18 0.7016,0 1.2891,-0.67 1.3057,-1.489 0.0544,-2.691 2.1276,-5.344 6.8233,-8.733 4.4945,-3.244 8.0136,-5.149 11.6456,-6.302 1.5046,-0.478 1.6954,-0.281 1.2774,1.319 -0.418,1.599 -0.2488,1.773 1.1334,1.169 1.8224,-0.797 4.1871,-0.749 12.3551,0.253 3.5808,0.439 7.3713,0.342 10.4201,-0.267 3.6385,-0.727 5.5058,-0.712 7.7575,0.062 3.8895,1.338 7.3985,3.672 6.8525,4.557 -0.239,0.387 0.283,1.532 1.161,2.544 2.345,2.706 1.434,4.834 -2.114,4.934 -1.607,0.046 -3.076,-0.166 -3.264,-0.471 -0.5065,-0.82 -23.7872,-0.398 -30.7842,0.558 -3.3241,0.454 -6.8387,1.251 -7.81,1.771 -0.9714,0.52 -3.2455,0.946 -5.0535,0.946 -1.808,0 -3.6508,0.332 -4.0951,0.738 -1.4866,1.359 -5.8739,1.709 -7.3982,0.591 z"
         fill="#000000"
         fill-opacity="0.2"
         id="path840"
         style="fill:#cccccc;fill-opacity:0.99950796" />
      <path
         d="m 155.478,192.397 c 0.273,-0.712 1.03,-1.296 1.682,-1.296 1.661,0 1.474,0.636 -0.497,1.692 -1.372,0.734 -1.59,0.662 -1.185,-0.396 z"
         fill="#000000"
         fill-opacity="0.2"
         id="path842"
         style="fill:#cccccc;fill-opacity:0.99950796" />
      <path
         d="m 160.045,190.277 c 0,-0.453 -0.526,-0.622 -1.169,-0.375 -2.005,0.77 -1.364,-3.94 0.878,-6.458 2.615,-2.937 16.083,-6.74 25.154,-7.104 2.702,-0.108 3.102,-0.368 2.67,-1.732 -0.425,-1.34 -0.178,-1.523 1.498,-1.111 1.104,0.271 4.079,0.764 6.612,1.095 4.518,0.59 7.726,2.344 7.726,4.226 0,0.522 0.974,1.394 2.166,1.938 3.201,1.459 3.63,1.158 1.235,-0.866 -1.393,-1.177 -1.759,-1.926 -1.063,-2.17 1.578,-0.553 1.287,-1.922 -0.425,-2 -0.862,-0.039 -1.048,-0.245 -0.441,-0.491 0.576,-0.233 3.254,1.052 5.952,2.856 2.698,1.803 5.649,3.679 6.556,4.167 2.109,1.135 2.978,3.384 1.017,2.631 -1.607,-0.617 -1.928,0.754 -0.328,1.404 0.805,0.326 0.76,0.641 -0.185,1.298 -0.686,0.477 -1.642,0.561 -2.126,0.188 -0.483,-0.373 -2.122,-1.097 -3.642,-1.609 -2.274,-0.765 -2.764,-0.711 -2.764,0.302 0,1.722 -1.275,1.535 -2.66,-0.39 -0.641,-0.892 -2.052,-1.883 -3.133,-2.201 -1.797,-0.529 -1.875,-0.432 -0.902,1.127 1.384,2.218 -0.468,5.013 -2.309,3.484 -0.619,-0.514 -1.494,-0.707 -1.944,-0.428 -0.45,0.278 -2.885,-0.033 -5.412,-0.692 -3.195,-0.832 -5.741,-0.975 -8.36,-0.469 -2.072,0.4 -6.063,0.752 -8.869,0.783 -3.161,0.034 -6.513,0.696 -8.809,1.738 -4.001,1.817 -6.923,2.179 -6.923,0.859 z"
         fill="#000000"
         fill-opacity="0.2"
         id="path844"
         style="fill:#cccccc;fill-opacity:0.99950796" />
    </g>
  </g>
</svg>
