<?xml version="1.0" encoding="UTF-8" standalone="no"?>
<!-- Created with Inkscape (http://www.inkscape.org/) -->

<svg
   width="33.337502mm"
   height="33.337502mm"
   viewBox="0 0 33.337502 33.337502"
   version="1.1"
   id="svg1420"
   inkscape:version="1.1 (ce6663b3b7, 2021-05-25)"
   sodipodi:docname="rails_logo.svg"
   xmlns:inkscape="http://www.inkscape.org/namespaces/inkscape"
   xmlns:sodipodi="http://sodipodi.sourceforge.net/DTD/sodipodi-0.dtd"
   xmlns="http://www.w3.org/2000/svg"
   xmlns:svg="http://www.w3.org/2000/svg">
  <sodipodi:namedview
     id="namedview1422"
     pagecolor="#ffffff"
     bordercolor="#666666"
     borderopacity="1.0"
     inkscape:pageshadow="2"
     inkscape:pageopacity="0.0"
     inkscape:pagecheckerboard="0"
     inkscape:document-units="mm"
     showgrid="false"
     fit-margin-top="0"
     fit-margin-left="0"
     fit-margin-right="0"
     fit-margin-bottom="0"
     inkscape:zoom="1.8973437"
     inkscape:cx="1.3176316"
     inkscape:cy="-54.022896"
     inkscape:window-width="1868"
     inkscape:window-height="1016"
     inkscape:window-x="52"
     inkscape:window-y="27"
     inkscape:window-maximized="1"
     inkscape:current-layer="layer1" />
  <defs
     id="defs1417" />
  <g
     inkscape:label="Layer 1"
     inkscape:groupmode="layer"
     id="layer1"
     transform="translate(-132.81731,-224.7177)">
    <rect
       width="33.337502"
       height="33.337502"
       fill="#000000"
       id="rect1524"
       x="132.81732"
       y="224.7177"
       style="stroke-width:0.264583" />
    <path
       d="m 140.22761,253.28477 h 11.53478 c 0,0 -2.55866,-5.81109 -1.90858,-11.14509 0.65009,-5.334 4.85688,-7.76243 7.24154,-8.02289 2.38456,-0.26042 3.68578,1.21476 3.68578,1.21476 l 0.52097,-0.78031 c 0,0 -3.4254,-3.46919 -7.7624,-3.07851 -4.337,0.39066 -7.32904,3.25247 -9.19282,6.72166 -1.86481,3.46919 -2.94931,5.89762 -3.68588,9.54077 -0.73655,3.64329 -0.43339,5.55067 -0.43339,5.55067 z m -2.2982,-5.81109 2.25447,0.17399 -0.39069,2.25443 -2.12526,-0.26043 0.26045,-2.16799 z m 3.55566,-4.77039 0.60738,-1.69084 -1.99504,-0.78029 -0.65008,1.82105 z m 2.81911,-5.81115 1.17097,-1.38766 -1.51789,-0.997 -1.2137,1.34392 z m 3.07851,-5.3767 1.04073,1.25746 1.43145,-0.82407 -1.04076,-1.171 z m 5.07354,-1.43142 0.26046,1.25743 1.77834,-0.0437 -0.17399,-1.12723 z m 6.02784,1.34389 -0.0438,0.78031 1.21476,0.65008 0.26035,-0.39065 -1.43032,-1.04077 z m -0.26045,3.34002 v 0.65009 l 1.1711,0.13022 v -0.52091 l -1.1711,-0.26045 z m -3.72859,0.56362 0.56361,1.04074 0.82405,-0.65008 -0.17293,-0.69382 -1.2137,0.30419 z m -1.77834,1.3439 0.86677,1.30122 -0.51985,0.91054 -1.25746,-1.38769 z m -1.73459,3.59942 -0.56361,1.12723 1.47412,1.25743 0.34693,-1.43142 -1.25744,-0.95428 z m -0.60737,3.94634 -0.0865,1.51788 1.82105,0.78031 -0.0865,-1.43142 -1.64811,-0.86783 z m 0.52088,5.3767 0.43445,1.56165 2.29819,0.13025 -0.82407,-1.69087 h -1.90857 z"
       fill="#56bd9e"
       id="path1526"
       style="stroke-width:0.264583" />
  </g>
</svg>
