<?xml version="1.0" encoding="UTF-8" standalone="no"?>
<!-- Created with Inkscape (http://www.inkscape.org/) -->

<svg
   width="33.337502mm"
   height="33.337502mm"
   viewBox="0 0 33.337502 33.337502"
   version="1.1"
   id="svg1420"
   inkscape:version="1.1 (ce6663b3b7, 2021-05-25)"
   sodipodi:docname="ruby_logo.svg"
   xmlns:inkscape="http://www.inkscape.org/namespaces/inkscape"
   xmlns:sodipodi="http://sodipodi.sourceforge.net/DTD/sodipodi-0.dtd"
   xmlns="http://www.w3.org/2000/svg"
   xmlns:svg="http://www.w3.org/2000/svg">
  <sodipodi:namedview
     id="namedview1422"
     pagecolor="#ffffff"
     bordercolor="#666666"
     borderopacity="1.0"
     inkscape:pageshadow="2"
     inkscape:pageopacity="0.0"
     inkscape:pagecheckerboard="0"
     inkscape:document-units="mm"
     showgrid="false"
     fit-margin-top="0"
     fit-margin-left="0"
     fit-margin-right="0"
     fit-margin-bottom="0"
     inkscape:zoom="0.67081229"
     inkscape:cx="-105.09646"
     inkscape:cy="-288.45625"
     inkscape:window-width="1868"
     inkscape:window-height="1016"
     inkscape:window-x="52"
     inkscape:window-y="27"
     inkscape:window-maximized="1"
     inkscape:current-layer="layer1" />
  <defs
     id="defs1417" />
  <g
     inkscape:label="Layer 1"
     inkscape:groupmode="layer"
     id="layer1"
     transform="translate(-132.81731,-224.7177)">
    <rect
       width="33.337502"
       height="33.337502"
       rx="2.1166666"
       fill="#000000"
       id="rect1490"
       x="132.81731"
       y="224.7177"
       style="stroke-width:0.264583" />
    <path
       d="m 143.91896,250.23759 c 5.03594,0.68712 9.98193,1.36284 15.02595,2.05155 -1.7186,-2.86102 -3.39265,-5.64923 -5.08048,-8.46011 -3.30679,2.13106 -6.58278,4.24186 -9.94465,6.40856 z m 16.44809,-15.83704 c -0.44424,0.66686 -0.889,1.33292 -1.33218,1.99978 -1.52255,2.29068 -3.04507,4.58136 -4.56597,6.87284 -0.0851,0.12803 -0.19447,0.22932 -0.0753,0.42542 1.46987,2.42679 2.92756,4.8609 4.38931,7.29258 0.23095,0.3841 0.46349,0.76642 0.76239,1.13525 0.29501,-5.90217 0.59082,-11.80431 0.88662,-17.70642 -0.022,-0.006 -0.0439,-0.013 -0.0648,-0.0186 z m -20.06278,7.56645 c 0.0689,0.0656 0.23985,0.1029 0.32007,0.064 1.40991,-0.69278 2.82871,-1.37019 4.20701,-2.1205 0.44971,-0.24471 0.7957,-0.68228 1.18303,-1.03799 1.28267,-1.17652 2.56373,-2.3555 3.844,-3.53446 0.0786,-0.0721 0.17097,-0.14261 0.21796,-0.23336 0.46024,-0.8986 0.91157,-1.80208 1.37991,-2.73148 -0.55827,-0.20987 -1.08659,-0.41487 -1.62219,-0.60124 -0.0721,-0.0251 -0.18716,0.0251 -0.26577,0.0689 -1.23973,0.69199 -2.50217,1.34753 -3.70221,2.1027 -0.60042,0.37759 -1.08982,0.93506 -1.62137,1.41962 -0.8573,0.78192 -1.71296,1.56628 -2.55728,2.36199 -0.22444,0.21148 -0.42862,0.45215 -0.60285,0.70657 -0.57772,0.84108 -1.13763,1.69431 -1.72347,2.57103 0.32734,0.33952 0.62553,0.66363 0.94398,0.96507 z m 5.15181,-1.14898 c -0.70091,2.96241 -1.39856,5.9086 -2.11889,8.95123 3.37728,-2.17644 6.67756,-4.30263 9.95516,-6.41422 -2.60829,-0.84434 -5.20851,-1.68621 -7.83627,-2.53621 z m 14.04948,-6.3891 c -2.85374,0.47643 -5.63951,0.94234 -8.46092,1.41314 0.96099,2.33767 1.90254,4.62835 2.87165,6.98465 1.87418,-2.81575 3.7111,-5.57477 5.59007,-8.39779 z m -13.93198,5.783 c 2.57022,0.8346 5.0886,1.65219 7.6807,2.49324 -0.96261,-2.34495 -1.89201,-4.60809 -2.84086,-6.91822 -1.61652,1.47797 -3.20794,2.93325 -4.83984,4.42498 z m -5.16316,3.4826 c -0.91157,2.17887 -1.79154,4.28318 -2.68771,6.42559 1.72267,-0.0511 3.39267,-0.10049 5.11939,-0.15153 -0.8111,-2.09216 -1.60599,-4.14379 -2.43168,-6.27485 z m 2.49164,4.78475 c 0.0211,-0.004 0.0421,-0.01 0.064,-0.0138 0.6142,-2.55564 1.23812,-5.09426 1.8661,-7.75039 -1.40017,0.72766 -2.73552,1.42127 -4.10734,2.13511 0.70009,1.81991 1.44635,3.73946 2.17806,5.62907 z m 15.57046,-14.46443 c -0.81759,-0.21635 -1.63515,-0.43349 -2.45274,-0.64902 -1.17573,-0.30874 -2.35225,-0.6142 -3.52716,-0.92617 -0.14668,-0.0389 -0.25281,-0.0648 -0.33951,0.11263 -0.41487,0.85079 -0.84352,1.69513 -1.26487,2.54267 -0.013,0.0259 -0.0105,0.06 -0.0203,0.1256 2.54593,-0.38568 5.07484,-0.76896 7.60294,-1.15223 7.9e-4,-0.0178 7.9e-4,-0.0356 0.002,-0.0535 z m -4.7426,-1.93495 c 2.19506,0.6077 4.39094,1.21463 6.66305,1.84341 -0.38258,-1.08903 -0.7366,-2.09865 -1.10119,-3.13743 -1.86613,0.41405 -3.70875,0.82243 -5.55215,1.23081 -0.003,0.0211 -0.007,0.0413 -0.01,0.0624 z m -10.26229,18.64874 c -0.82568,-0.0948 -1.67243,-0.007 -2.50944,0.006 -0.68794,0.0121 -1.37507,0.0381 -2.06219,0.0592 -0.0713,0.002 -0.14179,0.0162 -0.2123,0.0924 5.68418,0.52594 11.36833,1.05087 17.05168,1.57686 0.004,-0.0251 0.007,-0.0511 0.0114,-0.0762 -1.82234,-0.24871 -3.64387,-0.49742 -5.46621,-0.74639 -2.27042,-0.31038 -4.53678,-0.65058 -6.81289,-0.91312 z m -5.63311,-2.56943 c 0.7325,-1.69918 1.46177,-3.40076 2.1975,-5.0983 0.0737,-0.17018 0.0681,-0.28605 -0.0761,-0.42299 -0.30792,-0.2925 -0.59314,-0.60852 -0.9294,-0.95774 -0.45458,2.24448 -0.89781,4.43224 -1.34104,6.62085 0.0162,0.007 0.0332,0.0154 0.0494,0.0235 0.0341,-0.0543 0.0754,-0.10615 0.10049,-0.16449 z m 14.43606,-16.52823 c 1.23489,-0.31842 2.48841,-0.568 3.7338,-0.84592 0.0802,-0.0178 0.15963,-0.0446 0.23905,-0.0673 -0.004,-0.0203 -0.008,-0.0405 -0.0122,-0.0608 -1.75426,0.23579 -3.50935,0.47241 -5.35273,0.72035 0.50237,0.21958 0.88969,0.38325 1.39205,0.25443 z"
       fill="#56bd9e"
       id="path1492"
       style="stroke-width:0.264583" />
  </g>
</svg>
